# xmcd
#
# Track frame offsets:
#	182
#	11200
#	19005
#	30605
#	42340
#	52632
#	66745
#	79580
#	90957
#	102315
#	113335
#	124947
#	134657
#	146290
#	156225
#	170350
#	184745
#	196082
#	213015
#	224950
#	235545
#	246147
#	260360
#	270712
#	276320
#
# Disc length: 3823 seconds
#
# Revision: 5
# Processed by: cddbd v1.5.2PL0 Copyright (c) Steve Scherf et al.
# Submitted via: EasyCDDAExtractor 16.0.6.1
#
DISCID=5e0eed19
DTITLE=Varios - C-065 25 Country Classics Vol. 2
DYEAR=1991
DGENRE=Country and Western
TTITLE0=Guy Mitchell - Singin' The Blues
TTITLE1=Hello Walls - Roy Drusky
TTITLE2=Patsy Cline - I've Lost At Love Again
TTITLE3=Frankie Laine - Mule Train
TTITLE4=Barbara Mandrell - Kaw-Liga
TTITLE5=George Jones - Wedding Bells
TTITLE6=Faron Young - Four In The Morning
TTITLE7=Roy Drusky - Blue Eyes Cryin' In The Rain
TTITLE8=Waylon Jennings - Sally Was A Good Old Girl
TTITLE9=Dolly Parton - It Wasn't God Who Made Honky Tonk Angels
TTITLE10=Willie Nelson - Touch Me
TTITLE11=Barbara Mandrell - Release Me
TTITLE12=Guy Mitchell - Heartaches By The Number
TTITLE13=Stonewall Jackson - Shake 'em Up Roll 'em
TTITLE14=Kenny Rogers - Sunshine
TTITLE15=George Jones - Things Have Gone To Pieces
TTITLE16=Razy Bailey - 9,999,999 Tears
TTITLE17=Willie Nelson - Let My Mind Wander
TTITLE18=Waylon Jennings - Crying
TTITLE19=Patsy Cline - Honky Tonk Merry Go Round
TTITLE20=Kenny Rogers - Ticket To Nowhere
TTITLE21=Stonewall Jackson - Keep Off The Grass
TTITLE22=Carl Perkins - Daddy Sang Bass
TTITLE23=Willie Nelson - The Ghost
TTITLE24=Faron Young - If You Ain't Lovin'
EXTD=YEAR: 1991 ID3G: 2
EXTT0=
EXTT1=
EXTT2=
EXTT3=
EXTT4=
EXTT5=
EXTT6=
EXTT7=
EXTT8=
EXTT9=
EXTT10=
EXTT11=
EXTT12=
EXTT13=
EXTT14=
EXTT15=
EXTT16=
EXTT17=
EXTT18=
EXTT19=
EXTT20=
EXTT21=
EXTT22=
EXTT23=
EXTT24=
PLAYORDER=
